<svg width="300" height="200" xmlns="http://www.w3.org/2000/svg">
  <defs>
    <linearGradient id="bgGrad" x1="0%" y1="0%" x2="0%" y2="100%">
      <stop offset="0%" style="stop-color:#065f46;stop-opacity:1" />
      <stop offset="100%" style="stop-color:#059669;stop-opacity:1" />
    </linearGradient>
  </defs>
  
  <!-- Background -->
  <rect width="300" height="200" fill="url(#bgGrad)"/>
  
  <!-- Header bar -->
  <rect x="0" y="0" width="300" height="45" fill="#047857"/>
  
  <!-- Logo placeholder -->
  <rect x="15" y="10" width="80" height="25" fill="#10b981" rx="3"/>
  <text x="55" y="27" text-anchor="middle" fill="white" font-family="Arial" font-size="12" font-weight="bold">PENGUIN</text>
  
  <!-- Navigation items -->
  <rect x="120" y="15" width="50" height="15" fill="#6ee7b7" rx="2"/>
  <rect x="180" y="15" width="40" height="15" fill="#6ee7b7" rx="2"/>
  <rect x="230" y="15" width="45" height="15" fill="#6ee7b7" rx="2"/>
  
  <!-- Dashboard content -->
  <rect x="20" y="65" width="260" height="115" fill="white" rx="6"/>
  
  <!-- Dashboard title -->
  <rect x="30" y="75" width="150" height="18" fill="#d1fae5" rx="2"/>
  <text x="105" y="88" text-anchor="middle" fill="#065f46" font-family="Arial" font-size="12" font-weight="bold">Work Orders</text>
  
  <!-- Data rows -->
  <rect x="30" y="105" width="240" height="12" fill="#f3f4f6" rx="2"/>
  <rect x="30" y="125" width="220" height="12" fill="#f9fafb" rx="2"/>
  <rect x="30" y="145" width="200" height="12" fill="#f3f4f6" rx="2"/>
  <rect x="30" y="165" width="180" height="12" fill="#f9fafb" rx="2"/>
  
  <!-- Action buttons -->
  <rect x="200" y="105" width="60" height="20" fill="#10b981" rx="3"/>
  <text x="230" y="119" text-anchor="middle" fill="white" font-family="Arial" font-size="10">View</text>
</svg>